<svg version="1.2" xmlns="http://www.w3.org/2000/svg" viewBox="0 0 413 266" width="413" height="266">
	<style>
		.s0 { fill: none } 
		.s1 { fill: #00b6c6 } 
		.s2 { fill: #01bacf } 
	</style>
	<g id="レイヤー_2">
		<g id="デザイン">
			<path id="line1" fill-rule="evenodd" class="s0" d="m120.67 50.17v0.18"/>
			<path id="path5" class="s1" d="m97.15 61.45c13.32 0 13.14-10.2 13.14-10.2v-12.48h-26.62v12.48c0 0 0 10.2 13.55 10.2"/>
			<path id="path6" class="s1" d="m137.56 75.72c0.32-6.59-4.76-12.19-11.34-12.51q-0.81-0.04-1.61 0.03h-67.87v24.89h34.38l-74.25 69.6v35.81l113.4-106c0 0 7.11-5.97 7.11-11.58"/>
			<path id="path7" class="s1" d="m137.03 160.17c0 0-28.59-27.16-30.56-28.83-5.42-5.02-13.88-4.69-18.89 0.73-2.41 2.6-3.69 6.05-3.55 9.6v83.56h25.9v-55.57l27.1 25.43c0 0 0-34.92 0-34.92z"/>
			<path id="path8" class="s2" d="m119.48 137.49c4.02 5.23 11.51 6.21 16.74 2.2q0.29-0.23 0.57-0.47l14.03-12.65v-34.68l-29.43 27.46c-5.11 4.6-5.93 12.32-1.91 17.9"/>
			<path id="path9" class="s1" d="m140.84 64.32v23.87h53.72v137.28h26.98v-151.07c-0.1-5.67-4.77-10.18-10.44-10.09q-0.09 0-0.19 0.01c0 0-70.07 0-70.07 0z"/>
			<path id="path10" class="s1" d="m154.16 103.53v121.7h26.74v-121.7c0 0 0.54-9.13-13.13-9.13-13.67 0-13.61 9.13-13.61 9.13z"/>
			<path id="path14" class="s1" d="m308.92 61.45c13.31 0 13.13-10.2 13.13-10.2v-12.48h-26.62v12.48c0 0 0 10.2 13.49 10.2z"/>
			<path id="path15" class="s1" d="m255.2 132.96v91.98h72.94c0 0 47.75 0 47.75-45.9 0-45.9-47.75-46.32-47.75-46.32zm93.64 46.2c0.89 10.87-7.2 20.41-18.07 21.3q-0.75 0.06-1.5 0.07h-47.21v-9.91h42.97c6.22-0.32 11.01-5.62 10.69-11.84q0-0.05-0.01-0.1c0.63-5.93-3.67-11.25-9.6-11.88q-0.54-0.05-1.08-0.06h-42.97v-9.19h47.21c11.04 0.23 19.8 9.36 19.58 20.4q-0.02 0.61-0.06 1.21"/>
			<path id="path16" class="s1" d="m388.96 112.84c0.63-5.93-3.68-11.25-9.61-11.88q-0.54-0.05-1.07-0.06h-29.37v-12.71h16.18c6.22-0.28 11.03-5.56 10.75-11.78q-0.01-0.08-0.01-0.16c0.59-5.97-3.77-11.29-9.74-11.88q-0.5-0.05-1-0.05h-123.25v23.87h26.97v12.9h-40.05v23.87h149.63c6.23-0.32 11.01-5.62 10.69-11.84q0-0.05 0-0.1m-66.73-11.93h-26.92v-12.9h26.92z"/>
		</g>
	</g>
</svg>